<svg width="58" height="58" viewBox="0 0 58 58" fill="none" xmlns="http://www.w3.org/2000/svg">
<path d="M41.25 16.75L34.25 23.75M34.25 23.75V18.5M34.25 23.75H39.5" stroke="black" stroke-width="3" stroke-linecap="round" stroke-linejoin="round"/>
<path d="M25.566 17.3034L26.7017 19.3387C27.7255 21.1762 27.3142 23.5842 25.7007 25.1994C25.7007 25.1994 23.7407 27.1577 27.2932 30.7085C30.8405 34.2557 32.8005 32.301 32.8005 32.301C34.4157 30.6857 36.8255 30.2745 38.6613 31.2982L40.6965 32.4357C43.4703 33.9827 43.7975 37.8712 41.3598 40.3108C39.895 41.7738 38.0995 42.9148 36.1168 42.9883C32.7777 43.116 27.106 42.2708 21.4167 36.5832C15.7292 30.894 14.8839 25.2222 15.0117 21.8832C15.0869 19.9004 16.2262 18.1049 17.6892 16.6401C20.1287 14.2024 24.0172 14.5296 25.5642 17.3052L25.566 17.3034Z" stroke="black" stroke-width="3" stroke-linecap="round"/>
<circle cx="29" cy="29" r="27.5" stroke="#0D0D0D" stroke-width="3"/>
</svg>
