<svg width="58" height="58" viewBox="0 0 58 58" fill="none" xmlns="http://www.w3.org/2000/svg">
<path id="Vector" d="M27.3889 43.5H30.6111V25.7778H27.3889V43.5ZM29 21.1926C29.5628 21.1926 30.0333 21.0024 30.4113 20.6222C30.7916 20.242 30.9817 19.7716 30.9817 19.2109C30.9817 18.6481 30.7916 18.1766 30.4113 17.7963C30.0333 17.4161 29.5628 17.226 29 17.226C28.4372 17.226 27.9667 17.4161 27.5887 17.7963C27.2084 18.1766 27.0183 18.6481 27.0183 19.2109C27.0183 19.7716 27.2084 20.242 27.5887 20.6222C27.9667 21.0024 28.4372 21.1926 29 21.1926ZM29.0097 58C25.0012 58 21.2312 57.2396 17.6997 55.7187C14.1703 54.1956 11.0995 52.1291 8.48733 49.5191C5.87518 46.9113 3.80759 43.8437 2.28456 40.3164C0.761519 36.7892 0 33.0203 0 29.0097C0 25.0012 0.760444 21.2312 2.28133 17.6997C3.80437 14.1703 5.87089 11.0995 8.48089 8.48733C11.0887 5.87518 14.1563 3.80759 17.6836 2.28456C21.2108 0.761519 24.9797 0 28.9903 0C32.9988 0 36.7688 0.760444 40.3003 2.28133C43.8297 3.80437 46.9005 5.87089 49.5127 8.48089C52.1248 11.0887 54.1924 14.1563 55.7154 17.6836C57.2385 21.2108 58 24.9797 58 28.9903C58 32.9988 57.2396 36.7688 55.7187 40.3003C54.1956 43.8297 52.1291 46.9005 49.5191 49.5127C46.9113 52.1248 43.8437 54.1924 40.3164 55.7154C36.7892 57.2385 33.0203 58 29.0097 58ZM29 54.7778C36.1963 54.7778 42.2917 52.2806 47.2861 47.2861C52.2806 42.2917 54.7778 36.1963 54.7778 29C54.7778 21.8037 52.2806 15.7083 47.2861 10.7139C42.2917 5.71944 36.1963 3.22222 29 3.22222C21.8037 3.22222 15.7083 5.71944 10.7139 10.7139C5.71944 15.7083 3.22222 21.8037 3.22222 29C3.22222 36.1963 5.71944 42.2917 10.7139 47.2861C15.7083 52.2806 21.8037 54.7778 29 54.7778Z" fill="black"/>
</svg>
