<svg width="32" height="31" viewBox="0 0 32 31" fill="none" xmlns="http://www.w3.org/2000/svg">
<path id="Vector" d="M25.2903 24.8711C26.1031 24.8711 26.8825 25.194 27.4572 25.7687C28.0319 26.3434 28.3548 27.1229 28.3548 27.9356C28.3548 28.7484 28.0319 29.5279 27.4572 30.1026C26.8825 30.6773 26.1031 31.0001 25.2903 31.0001C24.4775 31.0001 23.6981 30.6773 23.1234 30.1026C22.5487 29.5279 22.2258 28.7484 22.2258 27.9356C22.2258 26.2348 23.5895 24.8711 25.2903 24.8711ZM0.77417 0.35498H5.78465L7.22498 3.4195H29.8871C30.2935 3.4195 30.6832 3.58093 30.9705 3.86828C31.2579 4.15564 31.4193 4.54537 31.4193 4.95175C31.4193 5.21224 31.3427 5.47272 31.2355 5.71788L25.75 15.6316C25.229 16.5663 24.2177 17.2098 23.0685 17.2098H11.6532L10.2742 19.7074L10.2282 19.8913C10.2282 19.9929 10.2686 20.0903 10.3404 20.1621C10.4122 20.234 10.5097 20.2743 10.6113 20.2743H28.3548V23.3389H9.96772C9.15496 23.3389 8.37549 23.016 7.80078 22.4413C7.22607 21.8666 6.9032 21.0871 6.9032 20.2743C6.9032 19.738 7.0411 19.2324 7.27094 18.8034L9.35481 15.0493L3.83869 3.4195H0.77417V0.35498ZM9.96772 24.8711C10.7805 24.8711 11.5599 25.194 12.1347 25.7687C12.7094 26.3434 13.0322 27.1229 13.0322 27.9356C13.0322 28.7484 12.7094 29.5279 12.1347 30.1026C11.5599 30.6773 10.7805 31.0001 9.96772 31.0001C9.15496 31.0001 8.37549 30.6773 7.80078 30.1026C7.22607 29.5279 6.9032 28.7484 6.9032 27.9356C6.9032 26.2348 8.26691 24.8711 9.96772 24.8711ZM23.758 14.1453L28.0177 6.48401H8.64998L12.2661 14.1453H23.758Z" fill="#0D0D0D"/>
</svg>
