<svg width="28" height="28" viewBox="0 0 28 28" fill="none" xmlns="http://www.w3.org/2000/svg">
<path id="Vector" d="M10.6693 3.676C10.4714 3.18142 10.1299 2.75744 9.68887 2.45872C9.2478 2.16 8.72737 2.00023 8.19467 2H4.52667C3.85655 2 3.21389 2.2662 2.74004 2.74004C2.2662 3.21389 2 3.85655 2 4.52667C2 16.3853 11.6133 26 23.4747 26C24.1446 25.9996 24.7869 25.7333 25.2604 25.2595C25.734 24.7857 26 24.1432 26 23.4733V19.8053C26 19.2724 25.8404 18.7517 25.5417 18.3103C25.2429 17.869 24.8188 17.5273 24.324 17.3293L20.8093 15.924C20.363 15.7454 19.8767 15.6907 19.4019 15.7659C18.9271 15.841 18.4814 16.043 18.112 16.3507L17.2053 17.108C16.6939 17.5343 16.0416 17.754 15.3764 17.7239C14.7113 17.6938 14.0815 17.4161 13.6107 16.9453L11.056 14.3867C10.5855 13.9163 10.3079 13.2871 10.2775 12.6225C10.2472 11.9579 10.4663 11.306 10.892 10.7947L11.648 9.888C11.9563 9.51873 12.159 9.07293 12.2346 8.59784C12.3102 8.12275 12.2558 7.63605 12.0773 7.18933L10.6693 3.676Z" stroke="black" stroke-width="2.6" stroke-linecap="round" stroke-linejoin="round"/>
</svg>
